<?xml version="1.0" standalone="no"?>
<!DOCTYPE svg PUBLIC "-//W3C//DTD SVG 20010904//EN"
 "http://www.w3.org/TR/2001/REC-SVG-20010904/DTD/svg10.dtd">
<svg version="1.0" xmlns="http://www.w3.org/2000/svg"
 width="1024.000000pt" height="1024.000000pt" viewBox="0 0 1024.000000 1024.000000"
 preserveAspectRatio="xMidYMid meet">
<metadata>
Created by potrace 1.15, written by Peter Selinger 2001-2017
</metadata>
<g transform="translate(0.000000,1024.000000) scale(0.100000,-0.100000)"
fill="#000000" stroke="none">
<path d="M0 5120 l0 -5120 5120 0 5120 0 0 5120 0 5120 -5120 0 -5120 0 0
-5120z m6775 2212 c638 -508 1170 -934 1182 -945 l22 -22 -75 -784 -74 -783
-33 -47 c-18 -25 -197 -269 -397 -541 -321 -438 -406 -551 -388 -515 3 6 142
262 308 569 l303 560 -77 355 c-42 196 -82 361 -89 367 -7 6 -533 343 -1170
748 l-1158 736 -1162 -741 c-639 -408 -1165 -744 -1169 -748 -3 -3 -41 -167
-84 -363 l-77 -356 288 -534 c158 -293 299 -553 313 -578 14 -25 21 -40 15
-35 -10 9 -801 1087 -816 1111 -4 7 -38 349 -77 760 -38 412 -72 766 -75 786
l-5 37 1412 1127 c777 619 1417 1132 1422 1139 7 9 76 -41 255 -184 135 -107
768 -611 1406 -1119z m-705 -1506 c476 -384 871 -704 879 -712 13 -12 11 -76
-14 -486 l-28 -473 -279 -402 c-154 -222 -282 -403 -285 -403 -2 0 -2 4 1 8 3
4 97 212 211 461 l205 453 -122 225 -123 226 -694 398 c-522 299 -698 396
-710 389 -9 -5 -322 -184 -695 -398 l-679 -388 -120 -220 c-66 -120 -120 -224
-120 -229 0 -6 82 -190 183 -410 228 -498 234 -512 221 -500 -5 6 -132 186
-282 400 l-272 390 -29 474 c-24 392 -27 476 -16 486 7 7 417 337 910 734 494
397 900 726 904 732 3 6 24 -4 47 -24 23 -18 431 -347 907 -731z m-4112 -453
c18 -131 32 -247 32 -258 0 -16 -87 -71 -386 -249 -212 -126 -387 -232 -389
-236 -2 -4 207 -413 466 -909 259 -497 469 -904 467 -906 -3 -3 -659 123 -664
128 -19 20 -1303 2212 -1298 2216 4 5 1711 448 1735 450 3 1 20 -106 37 -236z
m7257 11 c468 -120 853 -220 856 -223 3 -3 -287 -503 -646 -1111 l-652 -1105
-329 -66 c-181 -36 -330 -62 -332 -58 -2 6 731 1422 894 1726 l44 82 -388 232
c-213 128 -390 235 -394 238 -4 3 8 118 27 256 19 137 35 251 35 253 0 2 8 1
18 -2 9 -3 400 -103 867 -222z m-4071 -247 c7 -7 275 -224 595 -481 l581 -469
0 -237 0 -238 -191 -321 c-106 -177 -193 -320 -195 -318 -2 2 48 155 111 340
l115 337 -66 93 -65 92 -446 258 c-245 141 -450 257 -455 257 -22 0 -886 -504
-909 -531 -14 -16 -47 -60 -72 -98 l-47 -68 114 -339 c63 -186 113 -340 111
-342 -1 -1 -88 141 -192 315 l-190 318 -4 240 -4 239 120 98 c260 211 1070
866 1073 867 2 1 9 -5 16 -12z m-2891 -643 c38 -69 67 -127 65 -129 -1 -1 -51
-34 -110 -72 l-107 -70 254 -479 c139 -263 251 -481 249 -483 -6 -7 -349 61
-366 73 -24 15 -709 1180 -698 1184 23 8 579 100 610 101 35 1 36 0 103 -125z
m6138 81 c346 -57 332 -54 325 -71 -6 -16 -675 -1155 -686 -1167 -8 -9 -370
-80 -376 -74 -3 2 108 217 246 477 137 260 250 476 250 480 0 4 -47 38 -105
76 -57 38 -105 72 -105 76 0 4 30 61 66 127 54 100 70 121 89 121 12 0 146
-20 296 -45z"/>
</g>
</svg>
